G04 DipTrace Beta 2.3.5.2*
%INBrolemetry.GTS*%
%MOIN*%
%ADD20R,0.0433X0.0394*%
%ADD23R,0.1181X0.063*%
%ADD25R,0.0472X0.0217*%
%ADD36C,0.0354*%
%FSLAX44Y44*%
G04*
G70*
G90*
G75*
G01*
%LNTopMask*%
%LPD*%
D20*
X12250Y3750D3*
X11581D3*
Y1500D3*
X12250D3*
G36*
X10950Y5400D2*
Y4600D1*
X12550D1*
Y5400D1*
X10950D1*
G37*
G36*
Y7400D2*
Y6600D1*
X12550D1*
Y7400D1*
X10950D1*
G37*
G36*
Y6300D2*
Y5700D1*
X12550D1*
Y6300D1*
X10950D1*
G37*
D23*
X750Y4250D3*
Y2250D3*
Y3250D3*
Y5250D3*
Y6310D3*
Y1310D3*
D25*
X12250Y2250D3*
Y2624D3*
Y2998D3*
X11226D3*
Y2250D3*
G36*
X2833Y3208D2*
X1652D1*
Y2578D1*
X2833D1*
Y3208D1*
G37*
G36*
Y2420D2*
X1652D1*
Y1790D1*
X2833D1*
Y2420D1*
G37*
G36*
X10313Y5570D2*
X9132D1*
Y4940D1*
X10313D1*
Y5570D1*
G37*
G36*
Y6357D2*
X9132D1*
Y5727D1*
X10313D1*
Y6357D1*
G37*
G36*
X2833Y3995D2*
X1652D1*
Y3365D1*
X2833D1*
Y3995D1*
G37*
G36*
Y5570D2*
X1652D1*
Y4940D1*
X2833D1*
Y5570D1*
G37*
G36*
Y4783D2*
X1652D1*
Y4153D1*
X2833D1*
Y4783D1*
G37*
G36*
Y1633D2*
X1652D1*
Y1003D1*
X2833D1*
Y1633D1*
G37*
G36*
Y6357D2*
X1652D1*
Y5727D1*
X2833D1*
Y6357D1*
G37*
D36*
X10524Y3236D3*
Y1504D3*
M02*
