G04 DipTrace Beta 2.3.5.2*
%INBrolemetry.GBO*%
%MOIN*%
%ADD10C,0.0098*%
%ADD21C,0.006*%
%ADD27C,0.0118*%
%ADD31C,0.0197*%
%ADD59C,0.0046*%
%ADD60C,0.0087*%
%ADD61C,0.0066*%
%FSLAX44Y44*%
G04*
G70*
G90*
G75*
G01*
%LNBotSilk*%
%LPD*%
X7312Y6771D2*
D10*
X7688D1*
X7264Y6264D2*
D21*
Y6028D1*
X7736Y6264D2*
Y6028D1*
G36*
X4743Y4852D2*
X4507D1*
Y4792D1*
X4743D1*
Y4852D1*
G37*
G36*
X4181Y3727D2*
X3944D1*
Y3667D1*
X4181D1*
Y3727D1*
G37*
G36*
X4602Y6382D2*
X4542D1*
Y6618D1*
X4602D1*
Y6382D1*
G37*
X5791Y5144D2*
D10*
X5594D1*
Y4947D1*
X5791Y3175D2*
X5594D1*
Y3372D2*
Y3175D1*
X7562D2*
X7365D1*
X7562Y3372D2*
Y3175D1*
D27*
X7857Y4750D3*
X7365Y5144D2*
D10*
X7562Y4947D1*
X12866Y3906D2*
Y835D1*
Y3906D2*
X12374D1*
X11043D2*
X10201D1*
X9166Y3551D2*
Y3276D1*
Y1465D2*
Y1189D1*
X10201Y835D2*
X11043D1*
X12374D2*
X12866D1*
D31*
X8831Y3000D3*
%LNBottom BottomSilk2*%
X6216Y1475D2*
D59*
Y1174D1*
X6087D1*
X6043Y1189D1*
X6029Y1203D1*
X6015Y1231D1*
Y1274D1*
X6029Y1303D1*
X6043Y1318D1*
X6087Y1332D1*
X6043Y1346D1*
X6029Y1361D1*
X6015Y1389D1*
Y1418D1*
X6029Y1447D1*
X6043Y1461D1*
X6087Y1475D1*
X6216D1*
Y1332D2*
X6087D1*
X5922Y1375D2*
Y1174D1*
Y1289D2*
X5908Y1332D1*
X5879Y1361D1*
X5850Y1375D1*
X5807D1*
X5643D2*
X5672Y1361D1*
X5700Y1332D1*
X5715Y1289D1*
Y1260D1*
X5700Y1217D1*
X5672Y1189D1*
X5643Y1174D1*
X5600D1*
X5571Y1189D1*
X5543Y1217D1*
X5528Y1260D1*
Y1289D1*
X5543Y1332D1*
X5571Y1361D1*
X5600Y1375D1*
X5643D1*
X5392Y1475D2*
Y1231D1*
X5378Y1189D1*
X5349Y1174D1*
X5321D1*
X5435Y1375D2*
X5335D1*
X5228D2*
Y1174D1*
Y1289D2*
X5213Y1332D1*
X5185Y1361D1*
X5156Y1375D1*
X5113D1*
X4949D2*
X4977Y1361D1*
X5006Y1332D1*
X5020Y1289D1*
Y1260D1*
X5006Y1217D1*
X4977Y1189D1*
X4949Y1174D1*
X4905D1*
X4877Y1189D1*
X4848Y1217D1*
X4834Y1260D1*
Y1289D1*
X4848Y1332D1*
X4877Y1361D1*
X4905Y1375D1*
X4949D1*
X4741D2*
Y1174D1*
Y1318D2*
X4698Y1361D1*
X4669Y1375D1*
X4626D1*
X4597Y1361D1*
X4583Y1318D1*
Y1174D1*
X4490Y1475D2*
X4476Y1461D1*
X4462Y1475D1*
X4476Y1490D1*
X4490Y1475D1*
X4476Y1375D2*
Y1174D1*
X4196Y1332D2*
X4225Y1361D1*
X4254Y1375D1*
X4297D1*
X4326Y1361D1*
X4354Y1332D1*
X4369Y1289D1*
Y1260D1*
X4354Y1217D1*
X4326Y1189D1*
X4297Y1174D1*
X4254D1*
X4225Y1189D1*
X4196Y1217D1*
X3946Y1332D2*
X3960Y1361D1*
X4003Y1375D1*
X4046D1*
X4090Y1361D1*
X4104Y1332D1*
X4090Y1303D1*
X4061Y1289D1*
X3989Y1274D1*
X3960Y1260D1*
X3946Y1231D1*
Y1217D1*
X3960Y1189D1*
X4003Y1174D1*
X4046D1*
X4090Y1189D1*
X4104Y1217D1*
X2477Y6396D2*
D60*
X2496Y6434D1*
X2535Y6472D1*
X2573Y6491D1*
X2649D1*
X2688Y6472D1*
X2726Y6434D1*
X2745Y6396D1*
X2764Y6338D1*
Y6242D1*
X2745Y6185D1*
X2726Y6147D1*
X2688Y6109D1*
X2649Y6089D1*
X2573D1*
X2535Y6109D1*
X2496Y6147D1*
X2477Y6185D1*
Y6242D1*
X2573D1*
X2034Y6491D2*
Y6089D1*
X2302Y6491D1*
Y6089D1*
X1859Y6491D2*
Y6089D1*
X1726D1*
X1668Y6109D1*
X1630Y6147D1*
X1611Y6185D1*
X1592Y6242D1*
Y6338D1*
X1611Y6396D1*
X1630Y6434D1*
X1668Y6472D1*
X1726Y6491D1*
X1859D1*
X2477Y5333D2*
X2496Y5371D1*
X2535Y5410D1*
X2573Y5429D1*
X2649D1*
X2688Y5410D1*
X2726Y5371D1*
X2745Y5333D1*
X2764Y5276D1*
Y5180D1*
X2745Y5123D1*
X2726Y5084D1*
X2688Y5046D1*
X2649Y5027D1*
X2573D1*
X2535Y5046D1*
X2496Y5084D1*
X2477Y5123D1*
X2168Y5429D2*
Y5027D1*
X2302Y5429D2*
X2034D1*
X1592Y5371D2*
X1630Y5410D1*
X1687Y5429D1*
X1764D1*
X1821Y5410D1*
X1859Y5371D1*
Y5333D1*
X1840Y5295D1*
X1821Y5276D1*
X1783Y5257D1*
X1668Y5218D1*
X1630Y5199D1*
X1611Y5180D1*
X1592Y5142D1*
Y5084D1*
X1630Y5046D1*
X1687Y5027D1*
X1764D1*
X1821Y5046D1*
X1859Y5084D1*
X2821Y4429D2*
X2668Y4027D1*
X2515Y4429D1*
X2053Y4333D2*
X2073Y4371D1*
X2111Y4410D1*
X2149Y4429D1*
X2225D1*
X2264Y4410D1*
X2302Y4371D1*
X2321Y4333D1*
X2340Y4276D1*
Y4180D1*
X2321Y4123D1*
X2302Y4084D1*
X2264Y4046D1*
X2225Y4027D1*
X2149D1*
X2111Y4046D1*
X2073Y4084D1*
X2053Y4123D1*
X1592Y4333D2*
X1611Y4371D1*
X1649Y4410D1*
X1687Y4429D1*
X1764D1*
X1802Y4410D1*
X1840Y4371D1*
X1859Y4333D1*
X1879Y4276D1*
Y4180D1*
X1859Y4123D1*
X1840Y4084D1*
X1802Y4046D1*
X1764Y4027D1*
X1687D1*
X1649Y4046D1*
X1611Y4084D1*
X1592Y4123D1*
X2302Y3237D2*
X2130D1*
X2073Y3257D1*
X2053Y3276D1*
X2034Y3314D1*
Y3352D1*
X2053Y3390D1*
X2073Y3410D1*
X2130Y3429D1*
X2302D1*
Y3027D1*
X2168Y3237D2*
X2034Y3027D1*
X1859Y3429D2*
X1592Y3027D1*
Y3429D2*
X1859Y3027D1*
X2168Y2491D2*
Y2089D1*
X2302Y2491D2*
X2034D1*
X1859D2*
X1592Y2089D1*
Y2491D2*
X1859Y2089D1*
X2745Y1554D2*
Y1152D1*
X2611D1*
X2554Y1171D1*
X2515Y1209D1*
X2496Y1248D1*
X2477Y1305D1*
Y1401D1*
X2496Y1458D1*
X2515Y1496D1*
X2554Y1535D1*
X2611Y1554D1*
X2745D1*
X2168D2*
Y1152D1*
X2302Y1554D2*
X2034D1*
X1859Y1362D2*
X1688D1*
X1630Y1382D1*
X1611Y1401D1*
X1592Y1439D1*
Y1477D1*
X1611Y1515D1*
X1630Y1535D1*
X1688Y1554D1*
X1859D1*
Y1152D1*
X1726Y1362D2*
X1592Y1152D1*
X6216Y951D2*
D61*
Y650D1*
X6087D1*
X6044Y664D1*
X6030Y679D1*
X6015Y707D1*
Y750D1*
X6030Y779D1*
X6044Y793D1*
X6087Y808D1*
X6044Y822D1*
X6030Y836D1*
X6015Y865D1*
Y894D1*
X6030Y922D1*
X6044Y937D1*
X6087Y951D1*
X6216D1*
Y808D2*
X6087D1*
X5884Y851D2*
Y650D1*
Y764D2*
X5869Y808D1*
X5841Y836D1*
X5812Y851D1*
X5769D1*
X5566D2*
X5595Y836D1*
X5623Y808D1*
X5638Y764D1*
Y736D1*
X5623Y693D1*
X5595Y664D1*
X5566Y650D1*
X5523D1*
X5494Y664D1*
X5466Y693D1*
X5451Y736D1*
Y764D1*
X5466Y808D1*
X5494Y836D1*
X5523Y851D1*
X5566D1*
X5320Y951D2*
Y650D1*
X5189Y764D2*
X5016D1*
Y793D1*
X5031Y822D1*
X5045Y836D1*
X5074Y851D1*
X5117D1*
X5145Y836D1*
X5174Y808D1*
X5189Y764D1*
Y736D1*
X5174Y693D1*
X5145Y664D1*
X5117Y650D1*
X5074D1*
X5045Y664D1*
X5016Y693D1*
X4885Y851D2*
Y650D1*
Y793D2*
X4842Y836D1*
X4813Y851D1*
X4770D1*
X4742Y836D1*
X4727Y793D1*
Y650D1*
Y793D2*
X4684Y836D1*
X4655Y851D1*
X4613D1*
X4584Y836D1*
X4569Y793D1*
Y650D1*
X4438Y764D2*
X4266D1*
Y793D1*
X4280Y822D1*
X4294Y836D1*
X4323Y851D1*
X4366D1*
X4395Y836D1*
X4424Y808D1*
X4438Y764D1*
Y736D1*
X4424Y693D1*
X4395Y664D1*
X4366Y650D1*
X4323D1*
X4294Y664D1*
X4266Y693D1*
X4091Y951D2*
Y707D1*
X4077Y664D1*
X4048Y650D1*
X4020D1*
X4135Y851D2*
X4034D1*
X3889D2*
Y650D1*
Y764D2*
X3874Y808D1*
X3846Y836D1*
X3817Y851D1*
X3774D1*
X3628D2*
X3542Y650D1*
X3570Y592D1*
X3599Y563D1*
X3628Y549D1*
X3642D1*
X3456Y851D2*
X3542Y650D1*
M02*
