M48
INCH
T01C0.013
T02C0.035
T03C0.0354
%
T01
X+006250Y+004500
X+007000Y+004500
X+007000Y+003750
X+006250Y+003750
X+005188Y+004750
X+004875Y+005188
X+006125Y+005750
X+007063Y+005688
X+007063Y+006438
X+006375Y+007125
X+004875Y+007125
X+003500Y+007125
X+002000Y+007125
X+000750Y+007125
X+003375Y+005625
X+003062Y+005000
X+002938Y+004625
X+002500Y+004625
X+003062Y+003680
X+003500Y+000375
X+004875Y+000375
X+006375Y+000375
X+008000Y+000375
X+008375Y+001000
X+008375Y+002000
X+008790Y+002360
X+008615Y+002685
X+007875Y+002750
X+008250Y+003766
X+008500Y+004125
X+008640Y+004430
X+008375Y+004688
X+007875Y+005312
X+008812Y+005625
X+009750Y+004688
X+010750Y+004250
X+011938Y+002625
X+012375Y+000688
X+010750Y+000375
X+010750Y+007125
X+008000Y+007125
X+002000Y+000375
X+000625Y+000375
T02
X+000750Y+004250
X+000750Y+003250
X+000750Y+002250
X+000750Y+001310
X+000750Y+005250
X+000750Y+006310
T03
X+010524Y+003236
X+010524Y+001504
T00
M30
