G04 DipTrace Beta 2.3.5.2*
%INBrolemetry.GBL*%
%MOIN*%
%ADD13C,0.02*%
%ADD14C,0.015*%
%ADD15C,0.01*%
%ADD17C,0.025*%
%ADD21R,0.0433X0.0394*%
%ADD23R,0.0472X0.0315*%
%ADD24R,0.1181X0.063*%
%ADD29O,0.0335X0.0118*%
%ADD30O,0.0118X0.0335*%
%ADD31R,0.1378X0.1378*%
%ADD33R,0.0906X0.0197*%
%ADD34R,0.0984X0.0787*%
%ADD35C,0.027*%
%FSLAX44Y44*%
G04*
G70*
G90*
G75*
G01*
%LNBottom*%
%LPD*%
X4769Y6500D2*
D14*
Y6519D1*
X5000Y6750D1*
X7313D1*
X7500Y6563D1*
Y6500D1*
X8500D1*
X10750Y4250D1*
X750Y5250D2*
X1250D1*
X1313Y5188D1*
X2875D1*
X3062Y5000D1*
X5188Y4750D2*
D15*
Y5313D1*
X5375Y5500D1*
X6062D1*
X6185Y5378D1*
Y5144D1*
X6125Y5750D2*
X6381Y5494D1*
Y5144D1*
X6893Y938D2*
Y1688D1*
X7562Y4356D2*
X6775D1*
X6578Y4159D1*
X7062Y5688D2*
D14*
Y6438D1*
X9750Y4688D2*
D13*
Y4333D1*
X9539Y4122D1*
X9107Y5125D2*
X9312D1*
X9750Y4688D1*
X12375Y688D2*
X11774D1*
X11705Y618D1*
X8812Y5625D2*
X9107Y5331D1*
Y5125D1*
X3375Y5625D2*
Y4750D1*
X3250Y4625D1*
X2938D1*
X4875Y5188D2*
D15*
X4688Y5000D1*
X4625D1*
Y5019D1*
Y5312D1*
X5313Y6000D1*
X6250D1*
X6578Y5672D1*
Y5144D1*
X4062Y3894D2*
D14*
X3769D1*
X3555Y3680D1*
X3062D1*
X4062Y3894D2*
D15*
Y5125D1*
X5125Y6188D1*
X6375D1*
X6775Y5787D1*
Y5144D1*
X750Y4250D2*
D14*
X3313D1*
X3750Y4687D1*
Y5938D1*
X4312Y6500D1*
X4375D1*
X9500Y2370D2*
D15*
Y2360D1*
D14*
X8790D1*
X8640Y4430D2*
D15*
X8243D1*
X7972Y4159D1*
X7562D1*
X9500Y2685D2*
D14*
X8615D1*
X8500Y4125D2*
D15*
X8250D1*
X8088Y3963D1*
X7562D1*
X9500Y3000D2*
X8580D1*
X8011Y3569D1*
X7875D1*
X7562D1*
X7169Y3175D2*
X7188D1*
Y3062D1*
X7562Y2687D1*
Y2375D1*
X7544D1*
D14*
X7562Y2357D1*
Y1688D1*
Y938D1*
X7500Y5791D2*
X7396D1*
X7875Y5312D1*
Y2750D2*
X7625D1*
X7562Y2687D1*
Y2375D1*
X7544D1*
X7169Y3175D2*
D15*
Y3081D1*
X7250Y3000D1*
X7438D1*
X7875Y3438D1*
Y3569D1*
X750Y3250D2*
D14*
X3750D1*
X4000Y3500D1*
X4062D1*
X8438Y5125D2*
Y4750D1*
D15*
X8375Y4688D1*
X8250Y3766D2*
X7562D1*
X6972Y3175D2*
Y2972D1*
X6875Y2875D1*
Y2375D1*
X750Y2250D2*
D14*
X3375D1*
X4625Y3500D1*
Y4625D1*
D35*
X10750Y4250D3*
X3062Y5000D3*
X5188Y4750D3*
X3062Y5000D3*
X6125Y5750D3*
X4875Y5188D3*
X3062Y3680D3*
X8790Y2360D3*
X8640Y4430D3*
X8615Y2685D3*
X8500Y4125D3*
X7875Y5312D3*
Y2750D3*
X8375Y4688D3*
X8250Y3766D3*
X6250Y4500D3*
X7000D3*
X6250Y3750D3*
X7000D3*
X750Y7125D3*
X2938Y4625D3*
X12375Y688D3*
X7062Y6438D3*
X4875Y7125D3*
X8000D3*
X7062Y5688D3*
X6375Y7125D3*
X2000D3*
X3500D3*
X10750D3*
X625Y375D3*
X9750Y4688D3*
X8375Y1000D3*
X2000Y375D3*
X11938Y2625D3*
X8812Y5625D3*
X4875Y375D3*
X3500D3*
X6375D3*
X8000D3*
X10750D3*
X8375Y2000D3*
X3375Y5625D3*
X2500Y4625D3*
X310Y7029D2*
D17*
X4781D1*
X7531D2*
X10660D1*
X1632Y6780D2*
X3992D1*
X8718D2*
X10660D1*
X1632Y6531D2*
X3840D1*
X8976D2*
X10668D1*
X1632Y6283D2*
X3590D1*
X6749D2*
X6973D1*
X9222D2*
X12442D1*
X1632Y6034D2*
X3399D1*
X4351D2*
X4500D1*
X8027D2*
X8461D1*
X9472D2*
X12442D1*
X1632Y5785D2*
X3387D1*
X4117D2*
X4251D1*
X8027D2*
X8707D1*
X9722D2*
X12442D1*
X1632Y5537D2*
X3387D1*
X9968D2*
X10699D1*
X10218Y5288D2*
X10660D1*
X10464Y5039D2*
X10660D1*
X1632Y4791D2*
X2696D1*
X4992Y4293D2*
X5145D1*
X4992Y4045D2*
X5149D1*
X1632Y3796D2*
X2656D1*
X4992D2*
X5137D1*
X10320D2*
X10922D1*
X4992Y3547D2*
X5137D1*
X8609D2*
X8757D1*
X4925Y3298D2*
X5281D1*
X10988D2*
X12442D1*
X4679Y3050D2*
X5641D1*
X10949D2*
X12442D1*
X1632Y2801D2*
X3422D1*
X4433D2*
X5778D1*
X10242D2*
X10418D1*
X10627D2*
X12442D1*
X4183Y2552D2*
X6367D1*
X10242D2*
X12442D1*
X3933Y2304D2*
X6367D1*
X8050D2*
X8367D1*
X10242D2*
X12442D1*
X3687Y2055D2*
X6367D1*
X8070D2*
X8508D1*
X10242D2*
X12442D1*
X1632Y1806D2*
X6387D1*
X8070D2*
X8758D1*
X10871D2*
X12442D1*
X1632Y1558D2*
X6387D1*
X8070D2*
X8758D1*
X10988D2*
X12442D1*
X1632Y1309D2*
X6387D1*
X8070D2*
X10102D1*
X10945D2*
X12442D1*
X1632Y1060D2*
X6387D1*
X8070D2*
X8758D1*
X10320D2*
X10922D1*
X1632Y812D2*
X6387D1*
X8070D2*
X8758D1*
X10320D2*
X10922D1*
X310Y563D2*
X6387D1*
X8070D2*
X8758D1*
X10320D2*
X10922D1*
X310Y314D2*
X8758D1*
X10320D2*
X10922D1*
X8163Y5587D2*
X8919Y5583D1*
X8932Y5587D1*
X8358Y6161D1*
X8004Y6160D1*
X8001Y5694D1*
X8101Y5642D1*
X8161Y5586D1*
X8041Y1399D2*
X8044Y899D1*
Y476D1*
X7081Y480D1*
X7000Y476D1*
X6412D1*
Y1914D1*
X6394Y1913D1*
X6390Y2743D1*
X6287Y2760D1*
X6193Y2743D1*
X6090Y2760D1*
X5997Y2743D1*
X5874Y2764D1*
X5768Y2829D1*
X5695Y2929D1*
X5664Y3049D1*
Y3206D1*
X5624D1*
Y3245D1*
X5486Y3249D1*
X5372Y3266D1*
X5266Y3331D1*
X5193Y3431D1*
X5162Y3551D1*
X5178Y3663D1*
X5162Y3748D1*
X5178Y3859D1*
X5162Y3945D1*
X5178Y4056D1*
X5162Y4142D1*
X5178Y4253D1*
X5164Y4350D1*
X5068Y4368D1*
X5015Y4394D1*
X4981Y4329D1*
X4965Y4250D1*
Y3500D1*
X4942Y3378D1*
X4865Y3260D1*
X3615Y2010D1*
X3513Y1939D1*
X3375Y1910D1*
X1605D1*
Y730D1*
X281D1*
X285Y285D1*
X8781D1*
X8782Y1277D1*
X10144D1*
X10102Y1371D1*
X10068Y1377D1*
X8782D1*
Y1961D1*
X8670Y1978D1*
X8559Y2034D1*
X8469Y2121D1*
X8411Y2231D1*
X8391Y2357D1*
X8294Y2446D1*
X8233Y2575D1*
X8199Y2516D1*
X8112Y2428D1*
X8025Y2383D1*
X8026Y2145D1*
X8044Y2149D1*
X8040Y1226D1*
X7620Y6922D2*
X8001D1*
Y6840D1*
X8500D1*
X8622Y6817D1*
X8740Y6740D1*
X10685Y4800D1*
X10690Y5450D1*
X10714Y5520D1*
X10757Y5582D1*
X10815Y5628D1*
X10885Y5657D1*
X10975Y5665D1*
X12465D1*
Y6336D1*
X10925D1*
X10852Y6354D1*
X10787Y6391D1*
X10735Y6445D1*
X10701Y6511D1*
X10685Y6600D1*
Y7277D1*
X285D1*
Y6891D1*
X1605Y6890D1*
Y5529D1*
X2875Y5527D1*
X2997Y5505D1*
X3115Y5428D1*
X3157Y5386D1*
X3289Y5330D1*
X3379Y5244D1*
X3411Y5186D1*
X3410Y5938D1*
X3433Y6060D1*
X3510Y6178D1*
X3999Y6667D1*
X3998Y6697D1*
X4036Y6814D1*
X4139Y6887D1*
X4198Y6897D1*
X4663D1*
X4760Y6990D1*
X4862Y7061D1*
X5000Y7090D1*
X7313D1*
X7435Y7067D1*
X7553Y6990D1*
X7622Y6921D1*
X6999Y6078D2*
Y6410D1*
X6598D1*
X7000Y6007D1*
X7003Y6214D1*
X1603Y4830D2*
X1605Y4592D1*
X3176Y4590D1*
X3189Y4620D1*
X3066Y4600D1*
X2943Y4618D1*
X2831Y4674D1*
X2742Y4761D1*
X2697Y4847D1*
X1605Y4848D1*
X1602Y4670D1*
X1605Y3912D2*
X1602Y3670D1*
X1605Y3592D1*
X2676Y3590D1*
X2663Y3674D1*
X2680Y3797D1*
X2737Y3912D1*
X1605Y3910D1*
Y3705D1*
X1603Y2830D2*
X1605Y2592D1*
X3230Y2590D1*
X3557Y2913D1*
X2625Y2910D1*
X1605D1*
X1602Y2670D1*
X8907Y3363D2*
X10099D1*
X10096Y3463D1*
X8782D1*
Y3842D1*
X8737Y3803D1*
X8650Y3758D1*
X8631Y3643D1*
X8574Y3532D1*
X8533Y3490D1*
X8712Y3314D1*
X8782Y3363D1*
X8907D1*
X10218Y2914D2*
X10214Y2637D1*
X10218Y2233D1*
X10214Y2007D1*
X10218Y1954D1*
X10221Y1826D1*
X10323Y1898D1*
X10441Y1938D1*
X10565Y1944D1*
X10686Y1915D1*
X10795Y1853D1*
X10881Y1764D1*
X10940Y1653D1*
X10966Y1504D1*
X10948Y1380D1*
X10897Y1267D1*
X10816Y1172D1*
X10712Y1104D1*
X10593Y1067D1*
X10468Y1065D1*
X10345Y1100D1*
X10296Y1102D1*
Y285D1*
X10945D1*
X10948Y709D1*
Y1277D1*
X12462D1*
X12465Y785D1*
X12462Y3463D1*
X10948D1*
Y3903D1*
X10876Y3870D1*
X10753Y3850D1*
X10630Y3868D1*
X10519Y3924D1*
X10429Y4011D1*
X10371Y4121D1*
X10365Y4155D1*
X10297Y4222D1*
X10296Y3616D1*
X10441Y3670D1*
X10565Y3676D1*
X10686Y3647D1*
X10795Y3585D1*
X10881Y3496D1*
X10940Y3386D1*
X10966Y3236D1*
X10948Y3113D1*
X10897Y2999D1*
X10816Y2904D1*
X10712Y2836D1*
X10593Y2799D1*
X10468Y2797D1*
X10348Y2830D1*
X10239Y2898D1*
X10218Y2798D1*
X10214Y2322D1*
X10218Y1918D1*
Y1821D1*
X4598Y6103D2*
X4395D1*
X4092Y5798D1*
X4090Y5598D1*
X4594Y6102D1*
X6893Y938D2*
D14*
Y476D1*
X6412Y938D2*
X6893D1*
X6412Y1688D2*
X6893D1*
X11750Y5665D2*
Y5000D1*
X10685D2*
X11750D1*
Y7000D2*
Y6335D1*
X10685Y7000D2*
X11750D1*
X750Y6889D2*
Y6310D1*
X1605D1*
X9500Y1740D2*
Y1377D1*
X8783Y1740D2*
X10217D1*
X9539Y4122D2*
Y3464D1*
Y4122D2*
X10296D1*
X9539Y1276D2*
Y618D1*
X8783D2*
X10296D1*
X11705Y4122D2*
Y3464D1*
Y4122D2*
X12461D1*
X11705Y1276D2*
Y618D1*
X10948D2*
X12461D1*
D21*
X8438Y5125D3*
X9107D3*
X7562Y938D3*
X6893D3*
X7562Y1688D3*
X6893D3*
D23*
X7500Y6500D3*
Y5791D3*
G36*
X10950Y5400D2*
Y4600D1*
X12550D1*
Y5400D1*
X10950D1*
G37*
G36*
Y7400D2*
Y6600D1*
X12550D1*
Y7400D1*
X10950D1*
G37*
D24*
X750Y4250D3*
Y2250D3*
Y3250D3*
Y5250D3*
Y6310D3*
Y1310D3*
G36*
X4743Y4723D2*
Y4527D1*
X4507D1*
Y4723D1*
X4743D1*
G37*
G36*
Y5117D2*
Y4920D1*
X4507D1*
Y5117D1*
X4743D1*
G37*
G36*
X4181Y3598D2*
Y3402D1*
X3944D1*
Y3598D1*
X4181D1*
G37*
G36*
Y3992D2*
Y3795D1*
X3944D1*
Y3992D1*
X4181D1*
G37*
G36*
X4473Y6382D2*
X4277D1*
Y6618D1*
X4473D1*
Y6382D1*
G37*
G36*
X4867D2*
X4670D1*
Y6618D1*
X4867D1*
Y6382D1*
G37*
D21*
X6875Y2375D3*
X7544D3*
D29*
X7562Y4750D3*
Y4553D3*
Y4356D3*
Y4159D3*
Y3963D3*
Y3766D3*
Y3569D3*
D30*
X7169Y3175D3*
X6972D3*
X6775D3*
X6578D3*
X6381D3*
X6185D3*
X5988D3*
D29*
X5594Y3569D3*
Y3766D3*
Y3963D3*
Y4159D3*
Y4356D3*
Y4553D3*
Y4750D3*
D30*
X5988Y5144D3*
X6185D3*
X6381D3*
X6578D3*
X6775D3*
X6972D3*
X7169D3*
D31*
X6578Y4159D3*
D33*
X9500Y3000D3*
Y2685D3*
Y2370D3*
Y2055D3*
Y1740D3*
D34*
X9539Y4122D3*
Y618D3*
X11705Y4122D3*
Y618D3*
M02*
